<svg width="16" height="16" viewBox="0 0 16 16" fill="none" xmlns="http://www.w3.org/2000/svg">
<mask id="mask0_14_456" style="mask-type:alpha" maskUnits="userSpaceOnUse" x="0" y="0" width="16" height="16">
<rect width="16" height="16" fill="#D9D9D9"/>
</mask>
<g mask="url(#mask0_14_456)">
<path d="M8 4C7.91111 4 7.83333 3.96667 7.76667 3.9C7.7 3.83333 7.66667 3.75556 7.66667 3.66667C7.66667 3.57778 7.7 3.5 7.76667 3.43333C7.83333 3.36667 7.91111 3.33333 8 3.33333C8.08889 3.33333 8.16667 3.36667 8.23333 3.43333C8.3 3.5 8.33333 3.57778 8.33333 3.66667C8.33333 3.75556 8.3 3.83333 8.23333 3.9C8.16667 3.96667 8.08889 4 8 4ZM9.33333 4C9.24444 4 9.16667 3.96667 9.1 3.9C9.03333 3.83333 9 3.75556 9 3.66667C9 3.57778 9.03333 3.5 9.1 3.43333C9.16667 3.36667 9.24444 3.33333 9.33333 3.33333C9.42222 3.33333 9.5 3.36667 9.56667 3.43333C9.63333 3.5 9.66667 3.57778 9.66667 3.66667C9.66667 3.75556 9.63333 3.83333 9.56667 3.9C9.5 3.96667 9.42222 4 9.33333 4ZM6.66667 4C6.57778 4 6.5 3.96667 6.43333 3.9C6.36667 3.83333 6.33333 3.75556 6.33333 3.66667C6.33333 3.57778 6.36667 3.5 6.43333 3.43333C6.5 3.36667 6.57778 3.33333 6.66667 3.33333C6.75556 3.33333 6.83333 3.36667 6.9 3.43333C6.96667 3.5 7 3.57778 7 3.66667C7 3.75556 6.96667 3.83333 6.9 3.9C6.83333 3.96667 6.75556 4 6.66667 4ZM11.3333 4.66667C11.2444 4.66667 11.1667 4.63333 11.1 4.56667C11.0333 4.5 11 4.42222 11 4.33333C11 4.24444 11.0333 4.16667 11.1 4.1C11.1667 4.03333 11.2444 4 11.3333 4C11.4222 4 11.5 4.03333 11.5667 4.1C11.6333 4.16667 11.6667 4.24444 11.6667 4.33333C11.6667 4.42222 11.6333 4.5 11.5667 4.56667C11.5 4.63333 11.4222 4.66667 11.3333 4.66667ZM6 4.66667C5.91111 4.66667 5.83333 4.63333 5.76667 4.56667C5.7 4.5 5.66667 4.42222 5.66667 4.33333C5.66667 4.24444 5.7 4.16667 5.76667 4.1C5.83333 4.03333 5.91111 4 6 4C6.08889 4 6.16667 4.03333 6.23333 4.1C6.3 4.16667 6.33333 4.24444 6.33333 4.33333C6.33333 4.42222 6.3 4.5 6.23333 4.56667C6.16667 4.63333 6.08889 4.66667 6 4.66667ZM4.66667 4.66667C4.57778 4.66667 4.5 4.63333 4.43333 4.56667C4.36667 4.5 4.33333 4.42222 4.33333 4.33333C4.33333 4.24444 4.36667 4.16667 4.43333 4.1C4.5 4.03333 4.57778 4 4.66667 4C4.75556 4 4.83333 4.03333 4.9 4.1C4.96667 4.16667 5 4.24444 5 4.33333C5 4.42222 4.96667 4.5 4.9 4.56667C4.83333 4.63333 4.75556 4.66667 4.66667 4.66667ZM7.33333 4.66667C7.24444 4.66667 7.16667 4.63333 7.1 4.56667C7.03333 4.5 7 4.42222 7 4.33333C7 4.24444 7.03333 4.16667 7.1 4.1C7.16667 4.03333 7.24444 4 7.33333 4C7.42222 4 7.5 4.03333 7.56667 4.1C7.63333 4.16667 7.66667 4.24444 7.66667 4.33333C7.66667 4.42222 7.63333 4.5 7.56667 4.56667C7.5 4.63333 7.42222 4.66667 7.33333 4.66667ZM8.66667 4.66667C8.57778 4.66667 8.5 4.63333 8.43333 4.56667C8.36667 4.5 8.33333 4.42222 8.33333 4.33333C8.33333 4.24444 8.36667 4.16667 8.43333 4.1C8.5 4.03333 8.57778 4 8.66667 4C8.75556 4 8.83333 4.03333 8.9 4.1C8.96667 4.16667 9 4.24444 9 4.33333C9 4.42222 8.96667 4.5 8.9 4.56667C8.83333 4.63333 8.75556 4.66667 8.66667 4.66667ZM10 4.66667C9.91111 4.66667 9.83333 4.63333 9.76667 4.56667C9.7 4.5 9.66667 4.42222 9.66667 4.33333C9.66667 4.24444 9.7 4.16667 9.76667 4.1C9.83333 4.03333 9.91111 4 10 4C10.0889 4 10.1667 4.03333 10.2333 4.1C10.3 4.16667 10.3333 4.24444 10.3333 4.33333C10.3333 4.42222 10.3 4.5 10.2333 4.56667C10.1667 4.63333 10.0889 4.66667 10 4.66667ZM10.6667 4C10.5778 4 10.5 3.96667 10.4333 3.9C10.3667 3.83333 10.3333 3.75556 10.3333 3.66667C10.3333 3.57778 10.3667 3.5 10.4333 3.43333C10.5 3.36667 10.5778 3.33333 10.6667 3.33333C10.7556 3.33333 10.8333 3.36667 10.9 3.43333C10.9667 3.5 11 3.57778 11 3.66667C11 3.75556 10.9667 3.83333 10.9 3.9C10.8333 3.96667 10.7556 4 10.6667 4ZM12 5.33333C11.9111 5.33333 11.8333 5.3 11.7667 5.23333C11.7 5.16667 11.6667 5.08889 11.6667 5C11.6667 4.91111 11.7 4.83333 11.7667 4.76667C11.8333 4.7 11.9111 4.66667 12 4.66667C12.0889 4.66667 12.1667 4.7 12.2333 4.76667C12.3 4.83333 12.3333 4.91111 12.3333 5C12.3333 5.08889 12.3 5.16667 12.2333 5.23333C12.1667 5.3 12.0889 5.33333 12 5.33333ZM10.6667 5.33333C10.5778 5.33333 10.5 5.3 10.4333 5.23333C10.3667 5.16667 10.3333 5.08889 10.3333 5C10.3333 4.91111 10.3667 4.83333 10.4333 4.76667C10.5 4.7 10.5778 4.66667 10.6667 4.66667C10.7556 4.66667 10.8333 4.7 10.9 4.76667C10.9667 4.83333 11 4.91111 11 5C11 5.08889 10.9667 5.16667 10.9 5.23333C10.8333 5.3 10.7556 5.33333 10.6667 5.33333ZM5.33333 5.33333C5.24444 5.33333 5.16667 5.3 5.1 5.23333C5.03333 5.16667 5 5.08889 5 5C5 4.91111 5.03333 4.83333 5.1 4.76667C5.16667 4.7 5.24444 4.66667 5.33333 4.66667C5.42222 4.66667 5.5 4.7 5.56667 4.76667C5.63333 4.83333 5.66667 4.91111 5.66667 5C5.66667 5.08889 5.63333 5.16667 5.56667 5.23333C5.5 5.3 5.42222 5.33333 5.33333 5.33333ZM6 6C5.91111 6 5.83333 5.96667 5.76667 5.9C5.7 5.83333 5.66667 5.75556 5.66667 5.66667C5.66667 5.57778 5.7 5.5 5.76667 5.43333C5.83333 5.36667 5.91111 5.33333 6 5.33333C6.08889 5.33333 6.16667 5.36667 6.23333 5.43333C6.3 5.5 6.33333 5.57778 6.33333 5.66667C6.33333 5.75556 6.3 5.83333 6.23333 5.9C6.16667 5.96667 6.08889 6 6 6ZM6 9.5C5.76667 9.5 5.56944 9.41944 5.40833 9.25833C5.24722 9.09722 5.16667 8.9 5.16667 8.66667C5.16667 8.43333 5.24722 8.23611 5.40833 8.075C5.56944 7.91389 5.76667 7.83333 6 7.83333C6.23333 7.83333 6.43056 7.91389 6.59167 8.075C6.75278 8.23611 6.83333 8.43333 6.83333 8.66667C6.83333 8.9 6.75278 9.09722 6.59167 9.25833C6.43056 9.41944 6.23333 9.5 6 9.5ZM10 9.5C9.76667 9.5 9.56944 9.41944 9.40833 9.25833C9.24722 9.09722 9.16667 8.9 9.16667 8.66667C9.16667 8.43333 9.24722 8.23611 9.40833 8.075C9.56944 7.91389 9.76667 7.83333 10 7.83333C10.2333 7.83333 10.4306 7.91389 10.5917 8.075C10.7528 8.23611 10.8333 8.43333 10.8333 8.66667C10.8333 8.9 10.7528 9.09722 10.5917 9.25833C10.4306 9.41944 10.2333 9.5 10 9.5ZM8 14.6667C7.08889 14.6667 6.22778 14.4917 5.41667 14.1417C4.60556 13.7917 3.89667 13.3139 3.29 12.7083C2.68333 12.1028 2.20556 11.3939 1.85667 10.5833C1.50778 9.77278 1.33333 8.91167 1.33333 8C1.33333 7.07778 1.50833 6.21111 1.85833 5.4C2.20833 4.58889 2.68611 3.88333 3.29167 3.28333C3.89722 2.68333 4.60278 2.175 5.40833 1.85833C6.21389 1.54167 7.07778 1.33333 8 1.33333C8.92222 1.33333 9.78889 1.54167 10.6 1.85833C11.4111 2.175 12.1167 2.68333 12.7167 3.28333C13.3167 3.88333 13.7917 4.58889 14.1417 5.4C14.4917 6.21111 14.6667 7.07778 14.6667 8C14.6667 8.91167 14.4917 9.77278 14.1417 10.5833C13.7917 11.3939 13.3167 12.1028 12.7167 12.7083C12.1167 13.3139 11.4111 13.7917 10.6 14.1417C9.78889 14.4917 8.92222 14.6667 8 14.6667ZM8 13.3333C9.48889 13.3333 10.75 12.8139 11.7833 11.775C12.8167 10.7361 13.3333 9.47778 13.3333 8C13.3333 6.51111 12.8167 5.25 11.7833 4.21667C10.75 3.18333 9.48889 2.66667 8 2.66667C6.52222 2.66667 5.26389 3.18333 4.225 4.21667C3.18611 5.25 2.66667 6.51111 2.66667 8C2.66667 9.47778 3.18611 10.7361 4.225 11.775C5.26389 12.8139 6.52222 13.3333 8 13.3333Z" fill="#1C1B1F"/>
</g>
</svg>
