<svg width="16" height="16" viewBox="0 0 16 16" fill="none" xmlns="http://www.w3.org/2000/svg">
<mask id="mask0_14_462" style="mask-type:alpha" maskUnits="userSpaceOnUse" x="0" y="0" width="16" height="16">
<rect width="16" height="16" fill="#D9D9D9"/>
</mask>
<g mask="url(#mask0_14_462)">
<path d="M3.33333 14.6667C3.11111 14.6667 2.93056 14.5361 2.79167 14.275C2.65278 14.0139 2.58333 13.7 2.58333 13.3333V4C2.58333 3.63333 2.65278 3.31944 2.79167 3.05833C2.93056 2.79722 3.11111 2.66667 3.33333 2.66667H4V1.33333H5.33333V2.66667H10.6667V1.33333H12V2.66667H12.6667C12.8889 2.66667 13.0694 2.79722 13.2083 3.05833C13.3472 3.31944 13.4167 3.63333 13.4167 4V13.3333C13.4167 13.7 13.3472 14.0139 13.2083 14.275C13.0694 14.5361 12.8889 14.6667 12.6667 14.6667H3.33333ZM3.33333 13.3333H12.6667V6.66667H3.33333V13.3333ZM3.33333 5.33333H12.6667V4H3.33333V5.33333Z" fill="#1C1B1F"/>
</g>
</svg>
