<svg width="11" height="3" viewBox="0 0 11 3" fill="none" xmlns="http://www.w3.org/2000/svg">
<path d="M1.42297 2.09446C1.15119 2.09446 0.917523 1.99834 0.721974 1.80611C0.526425 1.61056 0.42865 1.37524 0.42865 1.10014C0.42865 0.828362 0.526425 0.596354 0.721974 0.404119C0.917523 0.20857 1.15119 0.110795 1.42297 0.110795C1.69475 0.110795 1.92841 0.20857 2.12396 0.404119C2.31951 0.596354 2.41729 0.828362 2.41729 1.10014C2.41729 1.28243 2.37088 1.44981 2.27808 1.60227C2.18859 1.75142 2.06927 1.87074 1.92013 1.96023C1.77098 2.04972 1.60526 2.09446 1.42297 2.09446ZM5.38781 2.09446C5.11603 2.09446 4.88237 1.99834 4.68682 1.80611C4.49127 1.61056 4.39349 1.37524 4.39349 1.10014C4.39349 0.828362 4.49127 0.596354 4.68682 0.404119C4.88237 0.20857 5.11603 0.110795 5.38781 0.110795C5.65959 0.110795 5.89326 0.20857 6.08881 0.404119C6.28436 0.596354 6.38213 0.828362 6.38213 1.10014C6.38213 1.28243 6.33573 1.44981 6.24293 1.60227C6.15344 1.75142 6.03412 1.87074 5.88497 1.96023C5.73582 2.04972 5.5701 2.09446 5.38781 2.09446ZM9.35266 2.09446C9.08088 2.09446 8.84721 1.99834 8.65166 1.80611C8.45611 1.61056 8.35834 1.37524 8.35834 1.10014C8.35834 0.828362 8.45611 0.596354 8.65166 0.404119C8.84721 0.20857 9.08088 0.110795 9.35266 0.110795C9.62444 0.110795 9.8581 0.20857 10.0536 0.404119C10.2492 0.596354 10.347 0.828362 10.347 1.10014C10.347 1.28243 10.3006 1.44981 10.2078 1.60227C10.1183 1.75142 9.99896 1.87074 9.84981 1.96023C9.70067 2.04972 9.53495 2.09446 9.35266 2.09446Z" fill="black"/>
</svg>
