<svg width="16" height="16" viewBox="0 0 16 16" fill="none" xmlns="http://www.w3.org/2000/svg">
<mask id="mask0_22_2428" style="mask-type:alpha" maskUnits="userSpaceOnUse" x="0" y="0" width="16" height="16">
<rect width="16" height="16" fill="#D9D9D9"/>
</mask>
<g mask="url(#mask0_22_2428)">
<mask id="mask1_22_2428" style="mask-type:alpha" maskUnits="userSpaceOnUse" x="-1" y="-1" width="17" height="17">
<rect x="-0.059082" y="-0.168457" width="16" height="16" fill="#D9D9D9"/>
</mask>
<g mask="url(#mask1_22_2428)">
<path d="M11.7743 13.3315C11.0743 13.3315 10.4827 13.0899 9.99933 12.6065C9.516 12.1232 9.27433 11.5315 9.27433 10.8315C9.27433 10.1315 9.516 9.53988 9.99933 9.05654C10.4827 8.57321 11.0743 8.33154 11.7743 8.33154C12.4743 8.33154 13.066 8.57321 13.5493 9.05654C14.0327 9.53988 14.2743 10.1315 14.2743 10.8315C14.2743 11.5315 14.0327 12.1232 13.5493 12.6065C13.066 13.0899 12.4743 13.3315 11.7743 13.3315ZM11.7743 11.9982C12.0966 11.9982 12.3716 11.8843 12.5993 11.6565C12.8271 11.4288 12.941 11.1538 12.941 10.8315C12.941 10.5093 12.8271 10.2343 12.5993 10.0065C12.3716 9.77877 12.0966 9.66488 11.7743 9.66488C11.4521 9.66488 11.1771 9.77877 10.9493 10.0065C10.7216 10.2343 10.6077 10.5093 10.6077 10.8315C10.6077 11.1538 10.7216 11.4288 10.9493 11.6565C11.1771 11.8843 11.4521 11.9982 11.7743 11.9982ZM2.60767 11.4982V10.1649H7.941V11.4982H2.60767ZM4.10767 7.33154C3.40767 7.33154 2.816 7.08988 2.33267 6.60654C1.84933 6.12321 1.60767 5.53154 1.60767 4.83154C1.60767 4.13154 1.84933 3.53988 2.33267 3.05654C2.816 2.57321 3.40767 2.33154 4.10767 2.33154C4.80767 2.33154 5.39933 2.57321 5.88267 3.05654C6.366 3.53988 6.60767 4.13154 6.60767 4.83154C6.60767 5.53154 6.366 6.12321 5.88267 6.60654C5.39933 7.08988 4.80767 7.33154 4.10767 7.33154ZM4.10767 5.99821C4.42989 5.99821 4.70489 5.88432 4.93267 5.65654C5.16044 5.42877 5.27433 5.15377 5.27433 4.83154C5.27433 4.50932 5.16044 4.23432 4.93267 4.00654C4.70489 3.77877 4.42989 3.66488 4.10767 3.66488C3.78544 3.66488 3.51044 3.77877 3.28267 4.00654C3.05489 4.23432 2.941 4.50932 2.941 4.83154C2.941 5.15377 3.05489 5.42877 3.28267 5.65654C3.51044 5.88432 3.78544 5.99821 4.10767 5.99821ZM7.941 5.49821V4.16488H13.2743V5.49821H7.941Z" fill="#1C1B1F"/>
</g>
</g>
</svg>
