<svg width="140" height="45" viewBox="0 0 140 45" fill="none" xmlns="http://www.w3.org/2000/svg">
<mask id="mask0_6_14" style="mask-type:alpha" maskUnits="userSpaceOnUse" x="0" y="0" width="45" height="45">
<rect width="44.7327" height="44.7327" fill="#1C1B1F"/>
</mask>
<g mask="url(#mask0_6_14)">
<path d="M26.655 29.785C28.6396 30.7891 30.7678 28.6747 29.7495 26.6973C29.2928 25.8104 29.4616 24.7301 30.1669 24.0247L30.9686 23.2231C32.4712 21.7205 32.4586 19.2718 30.956 17.7693C30.2331 17.0463 29.8217 16.0606 29.8217 15.0382C29.8217 12.9091 28.0958 11.1831 25.9667 11.1831C24.9443 11.1831 23.9627 10.7759 23.2397 10.053C21.7294 8.54262 19.2754 8.54262 17.7651 10.053C17.0421 10.7759 16.0605 11.1831 15.0381 11.1831C12.909 11.1831 11.1831 12.9091 11.1831 15.0382C11.1831 16.0606 10.7759 17.0422 10.0529 17.7651C8.54255 19.2755 8.54255 21.7294 10.0529 23.2398C10.7759 23.9627 11.1831 24.9444 11.1831 25.9668C11.1831 28.0958 12.909 29.8218 15.0381 29.8218C16.0605 29.8218 17.0517 30.2386 17.7746 30.9615C19.267 32.4539 21.7122 32.4795 23.2046 30.9871L23.9825 30.2091C24.6863 29.5054 25.767 29.3357 26.655 29.785ZM34.8541 34.8542C34.6295 35.0788 34.3709 35.2257 34.0783 35.295C33.7854 35.3643 33.4729 35.3141 33.1408 35.1445L30.575 33.8301C27.5795 32.2956 23.9362 32.8686 21.5564 35.2484C21.2551 35.5494 20.9037 35.6999 20.5024 35.6999C20.101 35.6999 19.7497 35.5494 19.4484 35.2484C17.1587 32.9695 14.0552 31.6856 10.8248 31.6856C10.3982 31.6856 10.0407 31.5413 9.75211 31.2527C9.46352 30.9642 9.31922 30.6066 9.31922 30.1801C9.31922 26.9496 8.03538 23.8461 5.75645 21.5565C5.45544 21.2551 5.30493 20.9038 5.30493 20.5025C5.30493 20.1011 5.45544 19.7498 5.75645 19.4484C8.03538 17.1588 9.31922 14.0553 9.31922 10.8248C9.31922 10.3983 9.46352 10.0408 9.75211 9.75217C10.0407 9.46358 10.3982 9.31929 10.8248 9.31929C14.0552 9.31929 17.1587 8.03544 19.4484 5.75651C19.7497 5.4555 20.101 5.30499 20.5024 5.30499C20.9037 5.30499 21.2551 5.4555 21.5564 5.75651C23.8461 8.03544 26.9495 9.31929 30.18 9.31929C30.6065 9.31929 30.9641 9.46358 31.2527 9.75217C31.5413 10.0408 31.6856 10.3983 31.6856 10.8248C31.6856 14.0553 32.9694 17.1588 35.2483 19.4484C35.5494 19.7498 35.6999 20.1011 35.6999 20.5025C35.6999 20.9038 35.5494 21.2551 35.2483 21.5565C32.8685 23.9363 32.2955 27.5796 33.83 30.575L35.1444 33.1408C35.314 33.4729 35.3642 33.7854 35.2949 34.0784C35.2257 34.371 35.0787 34.6296 34.8541 34.8542Z"/>
</g>
<mask id="mask1_6_14" style="mask-type:alpha" maskUnits="userSpaceOnUse" x="11" y="11" width="20" height="19">
<rect x="11.7424" y="11.1832" width="18.541" height="18.541" rx="9.27049" fill="#D9D9D9"/>
</mask>
<g mask="url(#mask1_6_14)">
<path d="M17.1501 28.179C16.5064 28.179 15.9591 27.9537 15.5085 27.503C15.0578 27.0524 14.8325 26.5052 14.8325 25.8614C14.8325 25.3592 14.9774 24.9086 15.2671 24.5095C15.7623 23.8271 16.3776 23.1127 16.3776 22.2695V18.6377C16.3776 17.7946 15.7623 17.0801 15.2671 16.3978C14.9774 15.9986 14.8325 15.548 14.8325 15.0458C14.8325 14.402 15.0578 13.8548 15.5085 13.4042C15.9591 12.9535 16.5064 12.7282 17.1501 12.7282C17.7939 12.7282 18.3411 12.9535 18.7918 13.4042C19.2424 13.8548 19.4678 14.402 19.4678 15.0458C19.4678 15.548 19.3229 15.9986 19.0332 16.3978C18.7711 16.7589 18.4431 17.0199 18.0493 17.1808C17.9744 17.2114 17.9227 17.2826 17.9227 17.3635C17.9227 18.0072 18.148 18.5545 18.5987 19.0051C19.0493 19.4558 19.5965 19.6811 20.2403 19.6811H21.7854C22.8541 19.6811 23.765 20.0577 24.5182 20.8109C25.2715 21.5641 25.6481 22.4751 25.6481 23.5438C25.6481 23.6247 25.6998 23.6959 25.7747 23.7264C26.1685 23.8873 26.4965 24.1483 26.7586 24.5095C27.0483 24.9086 27.1932 25.3592 27.1932 25.8614C27.1932 26.5052 26.9678 27.0524 26.5172 27.503C26.0665 27.9537 25.5193 28.179 24.8755 28.179C24.2318 28.179 23.6845 27.9537 23.2339 27.503C22.7832 27.0524 22.5579 26.5052 22.5579 25.8614C22.5579 25.3592 22.7028 24.9086 22.9925 24.5095C23.2546 24.1483 23.5826 23.8873 23.9764 23.7264C24.0513 23.6959 24.103 23.6247 24.103 23.5438C24.103 22.9 23.8777 22.3528 23.427 21.9021C22.9764 21.4515 22.4292 21.2262 21.7854 21.2262H20.2403C19.8025 21.2262 19.3873 21.1586 18.9946 21.0234C18.5217 20.8606 17.9227 21.1726 17.9227 21.6727V22.8352C17.9227 23.3399 18.2684 23.7652 18.6519 24.0934C18.7916 24.213 18.9187 24.3516 19.0332 24.5095C19.3229 24.9086 19.4678 25.3592 19.4678 25.8614C19.4678 26.5052 19.2424 27.0524 18.7918 27.503C18.3411 27.9537 17.7939 28.179 17.1501 28.179ZM17.1501 26.6339C17.369 26.6339 17.5525 26.5599 17.7006 26.4118C17.8486 26.2638 17.9227 26.0803 17.9227 25.8614C17.9227 25.6425 17.8486 25.459 17.7006 25.311C17.5525 25.1629 17.369 25.0889 17.1501 25.0889C16.9313 25.0889 16.7478 25.1629 16.5997 25.311C16.4516 25.459 16.3776 25.6425 16.3776 25.8614C16.3776 26.0803 16.4516 26.2638 16.5997 26.4118C16.7478 26.5599 16.9313 26.6339 17.1501 26.6339ZM24.8755 26.6339C25.0944 26.6339 25.2779 26.5599 25.426 26.4118C25.5741 26.2638 25.6481 26.0803 25.6481 25.8614C25.6481 25.6425 25.5741 25.459 25.426 25.311C25.2779 25.1629 25.0944 25.0889 24.8755 25.0889C24.6567 25.0889 24.4732 25.1629 24.3251 25.311C24.177 25.459 24.103 25.6425 24.103 25.8614C24.103 26.0803 24.177 26.2638 24.3251 26.4118C24.4732 26.5599 24.6567 26.6339 24.8755 26.6339ZM17.1501 15.8184C17.369 15.8184 17.5525 15.7443 17.7006 15.5963C17.8486 15.4482 17.9227 15.2647 17.9227 15.0458C17.9227 14.8269 17.8486 14.6435 17.7006 14.4954C17.5525 14.3473 17.369 14.2733 17.1501 14.2733C16.9313 14.2733 16.7478 14.3473 16.5997 14.4954C16.4516 14.6435 16.3776 14.8269 16.3776 15.0458C16.3776 15.2647 16.4516 15.4482 16.5997 15.5963C16.7478 15.7443 16.9313 15.8184 17.1501 15.8184Z"/>
</g>
<path d="M137.397 30.5594V18.2336H138.834V30.5594H137.397ZM138.128 16.115C137.833 16.115 137.582 16.0161 137.373 15.8181C137.165 15.6148 137.06 15.3714 137.06 15.0879C137.06 14.8043 137.165 14.5636 137.373 14.3657C137.582 14.1624 137.833 14.0607 138.128 14.0607C138.422 14.0607 138.673 14.1624 138.882 14.3657C139.091 14.5636 139.195 14.8043 139.195 15.0879C139.195 15.3714 139.091 15.6148 138.882 15.8181C138.673 16.0161 138.422 16.115 138.128 16.115Z"/>
<path d="M128.245 30.8403C127.501 30.8403 126.822 30.6959 126.207 30.407C125.592 30.1128 125.102 29.6901 124.738 29.1391C124.375 28.5827 124.193 27.9086 124.193 27.1169C124.193 26.507 124.308 25.9934 124.538 25.5761C124.768 25.1589 125.094 24.8165 125.517 24.549C125.939 24.2815 126.44 24.0702 127.017 23.915C127.595 23.7599 128.232 23.6395 128.927 23.5539C129.617 23.4683 130.2 23.3934 130.677 23.3292C131.158 23.265 131.524 23.1634 131.776 23.0243C132.027 22.8852 132.153 22.6605 132.153 22.3502V22.0613C132.153 21.2214 131.902 20.5607 131.399 20.0793C130.901 19.5924 130.184 19.349 129.248 19.349C128.36 19.349 127.635 19.5443 127.073 19.9348C126.517 20.3253 126.127 20.7854 125.902 21.3151L124.546 20.8255C124.824 20.1515 125.209 19.6138 125.701 19.2126C126.193 18.806 126.744 18.5144 127.354 18.3379C127.964 18.156 128.582 18.0651 129.208 18.0651C129.679 18.0651 130.168 18.1266 130.677 18.2496C131.19 18.3727 131.666 18.5867 132.105 18.8916C132.544 19.1912 132.899 19.6111 133.172 20.1515C133.445 20.6865 133.581 21.3659 133.581 22.1897V30.5595H132.153V28.6095H132.065C131.894 28.9733 131.64 29.3263 131.302 29.6687C130.965 30.0111 130.543 30.292 130.035 30.5113C129.526 30.7307 128.93 30.8403 128.245 30.8403ZM128.438 29.5323C129.197 29.5323 129.855 29.3638 130.412 29.0268C130.968 28.6897 131.396 28.243 131.696 27.6866C132.001 27.1249 132.153 26.507 132.153 25.8329V24.0515C132.046 24.1531 131.867 24.2441 131.615 24.3243C131.369 24.4045 131.083 24.4768 130.757 24.541C130.436 24.5998 130.115 24.6506 129.794 24.6934C129.473 24.7362 129.184 24.7737 128.927 24.8058C128.232 24.8914 127.638 25.0251 127.146 25.207C126.654 25.3889 126.276 25.6403 126.014 25.9613C125.752 26.277 125.621 26.6835 125.621 27.1811C125.621 27.93 125.889 28.5105 126.423 28.9224C126.958 29.329 127.63 29.5323 128.438 29.5323Z"/>
<path d="M119.873 30.6798C119.558 30.6798 119.285 30.5675 119.055 30.3428C118.83 30.1127 118.718 29.8399 118.718 29.5243C118.718 29.2033 118.83 28.9304 119.055 28.7057C119.285 28.4811 119.558 28.3687 119.873 28.3687C120.194 28.3687 120.467 28.4811 120.692 28.7057C120.917 28.9304 121.029 29.2033 121.029 29.5243C121.029 29.7329 120.975 29.9255 120.868 30.102C120.767 30.2786 120.628 30.4204 120.451 30.5273C120.28 30.629 120.087 30.6798 119.873 30.6798Z"/>
<path d="M103.632 14.1249H105.365L110.236 21.9248H110.38L115.251 14.1249H116.985L111.054 23.4415V30.5594H109.562V23.4415L103.632 14.1249Z"/>
<path d="M93.2334 30.5594V14.1249H94.734V29.2112H102.566V30.5594H93.2334Z"/>
<path d="M78.7571 30.5594V14.1249H80.2577V22.9761H80.4021L88.4268 14.1249H90.4009L83.3793 21.7242L90.3688 30.5594H88.5391L82.4484 22.7674L80.2577 25.223V30.5594H78.7571Z"/>
<path d="M73.4688 18.2336C73.3778 17.3187 72.9739 16.5912 72.2571 16.0508C71.5402 15.5105 70.6388 15.2404 69.5528 15.2404C68.7877 15.2404 68.1137 15.3714 67.5305 15.6336C66.9528 15.8957 66.498 16.2595 66.1663 16.7249C65.84 17.185 65.6768 17.7093 65.6768 18.2978C65.6768 18.7311 65.7705 19.1109 65.9577 19.4373C66.1449 19.7636 66.3964 20.0445 66.712 20.2798C67.033 20.5099 67.3861 20.7078 67.7713 20.8737C68.1618 21.0395 68.555 21.1786 68.9509 21.291L70.6842 21.7885C71.2085 21.9329 71.7328 22.1175 72.2571 22.3422C72.7813 22.5669 73.2601 22.8504 73.6935 23.1928C74.1322 23.5298 74.4826 23.9444 74.7447 24.4366C75.0122 24.9234 75.1459 25.5092 75.1459 26.194C75.1459 27.0714 74.9186 27.8605 74.4638 28.5613C74.0091 29.2621 73.3564 29.8185 72.5058 30.2304C71.6552 30.637 70.6361 30.8403 69.4484 30.8403C68.3303 30.8403 67.3593 30.6557 66.5355 30.2866C65.7116 29.9121 65.0643 29.3959 64.5935 28.7378C64.1227 28.0798 63.8579 27.3175 63.7991 26.4508H65.3398C65.3933 27.0981 65.6073 27.6465 65.9818 28.0959C66.3563 28.5452 66.8431 28.8876 67.4423 29.123C68.0414 29.3531 68.7102 29.4681 69.4484 29.4681C70.2669 29.4681 70.9945 29.3317 71.6311 29.0588C72.2731 28.7806 72.776 28.3954 73.1398 27.9033C73.5089 27.4057 73.6935 26.828 73.6935 26.1699C73.6935 25.6136 73.549 25.1481 73.2601 24.7737C72.9713 24.3938 72.5674 24.0755 72.0484 23.8187C71.5348 23.5619 70.9383 23.3346 70.2589 23.1366L68.2929 22.5588C67.0036 22.1737 66.0032 21.6414 65.2917 20.9619C64.5801 20.2825 64.2244 19.4159 64.2244 18.3619C64.2244 17.4792 64.4598 16.7035 64.9306 16.0348C65.4067 15.3607 66.0487 14.8364 66.8565 14.462C67.6696 14.0821 68.5818 13.8922 69.5929 13.8922C70.6147 13.8922 71.5188 14.0795 72.3052 14.4539C73.0916 14.8284 73.7149 15.3447 74.175 16.0027C74.6404 16.6554 74.8892 17.399 74.9213 18.2336H73.4688Z"/>
<path d="M49.7398 30.5594H48.167L54.1454 14.1249H55.7503L61.7287 30.5594H60.1558L55.004 16.0749H54.8917L49.7398 30.5594ZM50.8713 24.26H59.0244V25.6082H50.8713V24.26Z"/>
<path d="M138.834 18.2336H137.397V30.5593H138.834V18.2336ZM139.195 15.0877C139.195 14.8042 139.091 14.5633 138.882 14.3654C138.699 14.1875 138.484 14.0875 138.236 14.0653L138.127 14.0607C137.833 14.0607 137.582 14.1622 137.373 14.3654C137.165 14.5633 137.06 14.8042 137.06 15.0877C137.06 15.3712 137.165 15.6147 137.373 15.818C137.556 15.9912 137.771 16.0888 138.019 16.1104L138.127 16.1151C138.385 16.1151 138.61 16.0392 138.802 15.8876L138.882 15.818C139.091 15.6148 139.195 15.3712 139.195 15.0877ZM139.268 30.5593C139.268 30.7993 139.074 30.9939 138.834 30.9939H137.397C137.157 30.9938 136.962 30.7993 136.962 30.5593V18.2336C136.962 17.9937 137.157 17.7991 137.397 17.799H138.834C139.074 17.799 139.268 17.9936 139.268 18.2336V30.5593ZM139.629 15.0877C139.629 15.492 139.475 15.8465 139.185 16.1291L139.181 16.1333C138.889 16.4098 138.53 16.5497 138.127 16.5497C137.725 16.5496 137.365 16.4098 137.074 16.1333L137.07 16.1291C136.78 15.8465 136.625 15.4919 136.625 15.0877C136.626 14.685 136.779 14.3323 137.07 14.0543C137.36 13.7711 137.721 13.6261 138.127 13.6261C138.534 13.6261 138.894 13.7711 139.185 14.0543H139.185C139.476 14.3324 139.629 14.6848 139.629 15.0877Z"/>
<path d="M131.718 22.0612C131.718 21.3135 131.498 20.7758 131.098 20.3929L131.095 20.3899C130.704 20.0069 130.111 19.7835 129.248 19.7835C128.423 19.7835 127.791 19.9648 127.321 20.2915C126.82 20.6436 126.489 21.0432 126.302 21.4848C126.212 21.6971 125.972 21.802 125.755 21.7238L124.398 21.234C124.287 21.1938 124.196 21.1099 124.148 21.0015C124.1 20.893 124.099 20.7695 124.144 20.6598C124.446 19.9291 124.871 19.3289 125.427 18.8757C125.963 18.4332 126.565 18.1143 127.23 17.9213C127.88 17.7276 128.54 17.6306 129.208 17.6306C129.717 17.6306 130.241 17.6969 130.779 17.8271H130.778C131.345 17.9629 131.871 18.1993 132.353 18.5345H132.352C132.859 18.8809 133.259 19.3598 133.56 19.9554H133.56C133.873 20.5697 134.016 21.322 134.016 22.1897V30.5594C134.016 30.7994 133.821 30.994 133.581 30.994H132.153C131.913 30.9939 131.718 30.7993 131.718 30.5594V29.8613C131.684 29.8987 131.649 29.9364 131.612 29.9733C131.23 30.3613 130.759 30.6721 130.207 30.9103C129.633 31.158 128.976 31.2749 128.245 31.2749C127.444 31.2749 126.7 31.1189 126.022 30.8004L126.019 30.7992C125.335 30.4721 124.784 29.9974 124.376 29.3783L124.375 29.3766C123.956 28.737 123.758 27.9766 123.758 27.1168C123.758 26.4536 123.883 25.8633 124.157 25.3662C124.424 24.8816 124.803 24.4864 125.284 24.1818C125.75 23.8868 126.293 23.6595 126.905 23.4951C127.505 23.334 128.162 23.2102 128.874 23.1225L129.827 23.0024C130.118 22.9651 130.381 22.9304 130.618 22.8985H130.619C131.079 22.8372 131.383 22.7447 131.566 22.6438C131.629 22.6088 131.661 22.5727 131.68 22.539C131.7 22.5036 131.718 22.446 131.718 22.3502V22.0612ZM131.718 25.8331V24.7466C131.459 24.8294 131.166 24.9032 130.841 24.9673L130.835 24.9682C130.507 25.0283 130.179 25.0802 129.851 25.1239C129.529 25.1668 129.239 25.2045 128.981 25.2368L128.98 25.2372C128.308 25.32 127.749 25.4474 127.296 25.6145C126.858 25.7766 126.553 25.9893 126.351 26.2362L126.349 26.2388C126.164 26.4607 126.055 26.7624 126.055 27.1809C126.055 27.8108 126.273 28.2565 126.687 28.5763L126.771 28.6378C127.204 28.9366 127.751 29.0978 128.438 29.0978V29.5324L128.288 29.5298C127.596 29.5076 127.008 29.3299 126.525 28.9964L126.423 28.9225C125.888 28.5106 125.621 27.9299 125.621 27.1809C125.621 26.7145 125.736 26.328 125.967 26.0215L126.014 25.9612C126.244 25.6804 126.561 25.4528 126.967 25.2784L127.146 25.2071C127.576 25.0479 128.085 24.9254 128.671 24.84L128.927 24.8056C129.184 24.7735 129.473 24.736 129.794 24.6932C130.115 24.6504 130.436 24.5997 130.757 24.5408C131.083 24.4766 131.369 24.4046 131.615 24.3244C131.867 24.2442 132.046 24.1531 132.153 24.0515V25.8331L132.151 25.9587C132.133 26.584 131.982 27.1602 131.696 27.6868C131.396 28.2431 130.968 28.6895 130.412 29.0265C129.855 29.3636 129.197 29.5324 128.438 29.5324V29.0978C129.131 29.0978 129.709 28.9446 130.187 28.6552C130.679 28.3571 131.051 27.9665 131.313 27.4805L131.314 27.4792C131.582 26.9847 131.718 26.4387 131.718 25.8331ZM132.153 22.3502C132.153 22.6604 132.027 22.885 131.776 23.0241L131.676 23.0746C131.431 23.1881 131.098 23.273 130.677 23.3292C130.2 23.3934 129.617 23.4681 128.927 23.5537L128.669 23.5877C128.074 23.6701 127.523 23.7791 127.018 23.9149L126.805 23.976C126.316 24.124 125.887 24.3148 125.517 24.5489L125.363 24.6529C125.014 24.9032 124.739 25.2108 124.538 25.5759L124.496 25.6552C124.294 26.0578 124.193 26.545 124.193 27.1168L124.195 27.2641C124.216 27.9924 124.397 28.6174 124.738 29.139C125.102 29.69 125.592 30.1128 126.207 30.407C126.784 30.6778 127.417 30.8217 128.107 30.8386L128.245 30.8403C128.844 30.8403 129.376 30.7562 129.84 30.5882L130.034 30.5114C130.543 30.2921 130.965 30.011 131.303 29.6686C131.64 29.3262 131.894 28.9731 132.065 28.6094H132.153V30.5594H133.581V22.1897C133.581 21.4174 133.462 20.7718 133.222 20.2533L133.172 20.1514C132.917 19.6448 132.588 19.2441 132.186 18.9492L132.105 18.8915C131.666 18.5865 131.19 18.3724 130.677 18.2494C130.232 18.1417 129.802 18.0812 129.386 18.0677L129.208 18.0652C128.582 18.0652 127.964 18.1558 127.355 18.3376C126.745 18.5142 126.193 18.8061 125.701 19.2127L125.61 19.2895C125.161 19.6816 124.807 20.1935 124.546 20.8254L125.902 21.3151C126.127 20.7855 126.517 20.3251 127.074 19.9346C127.635 19.5441 128.36 19.349 129.248 19.3489C130.184 19.3489 130.901 19.5925 131.399 20.0793C131.902 20.5607 132.153 21.2213 132.153 22.0612V22.3502Z"/>
<path d="M121.029 29.5243C121.029 29.2033 120.917 28.9304 120.692 28.7057C120.495 28.5091 120.262 28.3984 119.992 28.3738L119.874 28.3687C119.558 28.3687 119.285 28.481 119.055 28.7057C118.83 28.9304 118.718 29.2033 118.718 29.5243L118.723 29.6406C118.748 29.9073 118.858 30.1413 119.055 30.3425C119.256 30.5392 119.49 30.6498 119.757 30.6744L119.874 30.6799C120.088 30.6799 120.28 30.6287 120.451 30.5271C120.628 30.4201 120.767 30.2784 120.868 30.1019C120.962 29.9474 121.015 29.7806 121.027 29.6015L121.029 29.5243ZM121.464 29.5243C121.464 29.8081 121.39 30.0754 121.245 30.3183L121.245 30.3187C121.106 30.5597 120.915 30.7544 120.677 30.8989L120.673 30.901C120.43 31.0455 120.16 31.1144 119.874 31.1145C119.442 31.1145 119.061 30.9559 118.751 30.6536C118.749 30.6512 118.746 30.6488 118.744 30.6464C118.442 30.3369 118.283 29.9557 118.283 29.5243C118.283 29.0894 118.441 28.7055 118.748 28.3984L118.751 28.3946C119.061 28.0923 119.442 27.9341 119.874 27.9341C120.308 27.9342 120.692 28.0913 120.999 28.3984C121.307 28.7055 121.464 29.0894 121.464 29.5243Z"/>
<path d="M105.365 13.6902C105.515 13.6902 105.654 13.7677 105.734 13.8948L110.308 21.22L114.883 13.8948L114.915 13.8494C114.997 13.7494 115.12 13.6903 115.251 13.6902H116.984C117.143 13.6902 117.289 13.7766 117.366 13.9156C117.442 14.0546 117.436 14.2244 117.351 14.3582L111.489 23.5673V30.5594C111.489 30.7994 111.294 30.9939 111.055 30.994H109.562C109.322 30.994 109.127 30.7994 109.127 30.5594V23.5677L103.265 14.3582C103.18 14.2244 103.174 14.0546 103.251 13.9156C103.327 13.7766 103.473 13.6902 103.632 13.6902H105.365ZM111.055 30.5594V23.4417L116.984 14.1248H115.251L110.38 21.9249H110.236L105.365 14.1248H103.632L109.562 23.4417V30.5594H111.055Z"/>
<path d="M102.566 29.2111H94.734V14.1248H93.2334V30.5594H102.566V29.2111ZM95.1686 28.7766H102.566C102.806 28.7767 103.001 28.9713 103.001 29.2111V30.5594C103.001 30.7993 102.806 30.9939 102.566 30.994H93.2334C92.9934 30.9939 92.7988 30.7994 92.7988 30.5594V14.1248C92.7989 13.8849 92.9935 13.6903 93.2334 13.6902H94.734C94.974 13.6902 95.1685 13.8848 95.1686 14.1248V28.7766Z"/>
<path d="M78.7571 14.1248V30.5594H80.2577V25.2228L82.4483 22.7673L88.5391 30.5594H90.369L83.3794 21.7242L90.4008 14.1248H88.427L80.4024 22.9761H80.2577V14.1248H78.7571ZM80.6923 22.009L88.1049 13.8328C88.1873 13.742 88.3044 13.6902 88.427 13.6902H90.4008C90.5735 13.6902 90.7297 13.7926 90.7989 13.9508C90.8681 14.109 90.8371 14.293 90.72 14.4198L83.9507 21.7458L90.7098 30.2899C90.8131 30.4206 90.8324 30.5987 90.7598 30.7487C90.6873 30.8986 90.5356 30.9939 90.369 30.994H88.5391C88.4055 30.9939 88.2793 30.9324 88.197 30.8272L82.4263 23.4446L80.6923 25.3883V30.5594C80.6923 30.7994 80.4977 30.994 80.2577 30.994H78.7571C78.5171 30.9939 78.3225 30.7994 78.3225 30.5594V14.1248C78.3226 13.8849 78.5172 13.6903 78.7571 13.6902H80.2577C80.4977 13.6902 80.6922 13.8848 80.6923 14.1248V22.009Z"/>
<path d="M65.3397 26.0164L65.3817 26.018C65.5888 26.0379 65.7555 26.2036 65.773 26.4148C65.82 26.9833 66.0048 27.4442 66.3158 27.8174C66.6387 28.2049 67.0624 28.5066 67.6 28.718C68.1421 28.9258 68.7565 29.0333 69.4486 29.0333V29.4678L69.1749 29.4628C68.5441 29.4376 67.9664 29.3241 67.4421 29.1228C66.8805 28.9021 66.4177 28.5873 66.0535 28.1786L65.9818 28.0958C65.6074 27.6465 65.3932 27.0982 65.3397 26.4509H63.7992C63.8581 27.3175 64.1229 28.0799 64.5937 28.7379C65.0644 29.3959 65.7118 29.912 66.5356 30.2865C67.308 30.6325 68.2096 30.8166 69.2406 30.8382L69.4486 30.8403C70.562 30.8403 71.5274 30.6617 72.3446 30.3043L72.5058 30.2305C73.3033 29.8442 73.927 29.331 74.3765 28.6908L74.4639 28.5614C74.9186 27.8605 75.1459 27.0711 75.1459 26.1937C75.1459 25.5091 75.0123 24.9232 74.7449 24.4364C74.4827 23.9442 74.1323 23.5295 73.6937 23.1925C73.3145 22.8929 72.9003 22.6385 72.4515 22.4291L72.2571 22.3421C71.7984 22.1454 71.3396 21.9794 70.8809 21.8443L70.6844 21.7882L68.9508 21.2909C68.6539 21.2066 68.3585 21.1073 68.0647 20.993L67.7714 20.8737C67.4344 20.7286 67.1219 20.5587 66.834 20.3644L66.7122 20.2796C66.3965 20.0442 66.1449 19.7635 65.9576 19.4372C65.7938 19.1517 65.7018 18.8251 65.6813 18.4577L65.6767 18.2977C65.6767 17.7093 65.8401 17.185 66.1664 16.725C66.4981 16.2596 66.9527 15.8956 67.5304 15.6334C68.1135 15.3713 68.788 15.2405 69.553 15.2405L69.7541 15.2434C70.7507 15.2751 71.585 15.5441 72.2571 16.0506C72.9292 16.5572 73.326 17.2285 73.4479 18.0643L73.4687 18.2336H74.9214C74.8913 17.4513 74.6707 16.7487 74.2598 16.1262L74.1749 16.0027C73.7148 15.3446 73.0915 14.8281 72.3051 14.4537C71.5678 14.1026 70.7271 13.9163 69.783 13.8943L69.5929 13.8922C68.5818 13.8922 67.6696 14.0819 66.8565 14.4617C66.0486 14.8362 65.4067 15.3608 64.9306 16.0349C64.4599 16.7036 64.2245 17.4792 64.2244 18.3618L64.2287 18.5574C64.2704 19.5235 64.6247 20.325 65.2918 20.962C66.0033 21.6413 67.0038 22.1738 68.293 22.5589L70.2591 23.1365C70.9384 23.3344 71.5348 23.5617 72.0483 23.8185C72.5673 24.0753 72.9715 24.3939 73.2604 24.7738C73.5491 25.1482 73.6937 25.6137 73.6937 26.17L73.6915 26.2922C73.6699 26.8997 73.4859 27.4367 73.1398 27.9032C72.7761 28.3953 72.2731 28.7806 71.6312 29.0587C70.9946 29.3316 70.267 29.4678 69.4486 29.4678V29.0333C70.2181 29.0333 70.8852 28.9052 71.4584 28.6598L71.5658 28.6119C72.0946 28.3651 72.4976 28.0406 72.7902 27.6447L72.791 27.6443C73.1009 27.2265 73.2591 26.7408 73.2591 26.17C73.2591 25.6921 73.1365 25.3246 72.9162 25.039L72.9141 25.0365C72.6736 24.7203 72.327 24.4413 71.8557 24.2081L71.854 24.2072C71.3684 23.9645 70.7972 23.7459 70.1373 23.5537H70.1365L68.1703 22.9757L68.1686 22.9752C66.8365 22.5773 65.7678 22.017 64.9917 21.276C64.1877 20.5083 63.7899 19.525 63.7899 18.3618C63.7899 17.397 64.0489 16.5323 64.5754 15.7845L64.5758 15.7841C65.0992 15.0431 65.8024 14.4713 66.6735 14.0675C67.5509 13.6579 68.5267 13.4576 69.5929 13.4576C70.6682 13.4576 71.6382 13.6548 72.4922 14.0615C73.3391 14.4649 74.0219 15.0271 74.5284 15.7501C75.0452 16.4748 75.3203 17.3012 75.3555 18.2167C75.3601 18.3347 75.3165 18.4498 75.2346 18.5349C75.1527 18.62 75.0395 18.6682 74.9214 18.6682H73.4687C73.2454 18.6682 73.0584 18.4987 73.0363 18.2765C72.957 17.4792 72.613 16.8631 71.9957 16.3978C71.369 15.9254 70.5648 15.6751 69.553 15.675C68.8381 15.675 68.2268 15.7968 67.7099 16.029C67.1941 16.263 66.8028 16.5807 66.5203 16.977C66.2488 17.3601 66.1112 17.7955 66.1112 18.2977C66.1112 18.6667 66.1905 18.9697 66.3345 19.2207C66.4899 19.4917 66.6995 19.7273 66.9676 19.9282C67.2611 20.1382 67.5864 20.3205 67.9437 20.4744C68.2237 20.5932 68.5046 20.6977 68.7865 20.7876L69.0696 20.8729L69.0709 20.8733L70.7998 21.3694L71.0035 21.4275C71.4794 21.5677 71.9543 21.7396 72.4282 21.9427C72.9845 22.1812 73.495 22.4828 73.958 22.8479C74.4463 23.223 74.8375 23.6858 75.1285 24.2323H75.1281C75.4362 24.7954 75.5804 25.4549 75.5805 26.1937C75.5805 27.1506 75.3312 28.0229 74.8285 28.7977C74.3251 29.5735 73.6075 30.1794 72.6951 30.6213L72.6934 30.6226C71.7711 31.0634 70.6847 31.2748 69.4486 31.2749C68.2835 31.2749 67.2492 31.0827 66.3578 30.6833L66.3557 30.682C65.4709 30.2798 64.7603 29.7175 64.2401 28.9904C63.719 28.262 63.4294 27.4211 63.3655 26.4802C63.3573 26.3601 63.3996 26.2418 63.4818 26.1539C63.5639 26.066 63.6789 26.0164 63.7992 26.0164H65.3397Z"/>
<path d="M55.7504 13.6902L55.8179 13.6958C55.9723 13.72 56.104 13.8261 56.1587 13.9763L62.1369 30.4109C62.1854 30.544 62.166 30.6924 62.0847 30.8085C62.0034 30.9246 61.8704 30.994 61.7287 30.994H60.1559C59.9721 30.994 59.808 30.8782 59.7464 30.705L58.0883 26.0427H51.8075L50.1494 30.705C50.0878 30.8782 49.9238 30.994 49.7399 30.994H48.1671C48.0254 30.994 47.8924 30.9246 47.8111 30.8085C47.7298 30.6924 47.7104 30.544 47.7589 30.4109L53.7371 13.9763L53.7652 13.9147C53.8407 13.7779 53.9856 13.6903 54.1454 13.6902H55.7504ZM54.1454 14.1248L48.1671 30.5594H49.7399L51.5011 25.6081H58.3947L60.1559 30.5594H61.7287L55.7504 14.1248H54.1454ZM55.0039 16.0748L57.9152 24.2599H51.9806L54.8919 16.0748H55.0039ZM52.5964 23.8253H57.2994L54.9479 17.213L52.5964 23.8253Z"/>
</svg>
