<svg width="16" height="16" viewBox="0 0 16 16" fill="none" xmlns="http://www.w3.org/2000/svg">
<mask id="mask0_14_459" style="mask-type:alpha" maskUnits="userSpaceOnUse" x="0" y="0" width="16" height="16">
<rect width="16" height="16" fill="#D9D9D9"/>
</mask>
<g mask="url(#mask0_14_459)">
<path d="M10.1667 3.33333C9.93333 3.33333 9.73611 3.25278 9.575 3.09167C9.41389 2.93056 9.33333 2.73333 9.33333 2.5C9.33333 2.26667 9.41389 2.06944 9.575 1.90833C9.73611 1.74722 9.93333 1.66667 10.1667 1.66667C10.4 1.66667 10.5972 1.74722 10.7583 1.90833C10.9194 2.06944 11 2.26667 11 2.5C11 2.73333 10.9194 2.93056 10.7583 3.09167C10.5972 3.25278 10.4 3.33333 10.1667 3.33333ZM10.1667 14.3333C9.93333 14.3333 9.73611 14.2528 9.575 14.0917C9.41389 13.9306 9.33333 13.7333 9.33333 13.5C9.33333 13.2667 9.41389 13.0694 9.575 12.9083C9.73611 12.7472 9.93333 12.6667 10.1667 12.6667C10.4 12.6667 10.5972 12.7472 10.7583 12.9083C10.9194 13.0694 11 13.2667 11 13.5C11 13.7333 10.9194 13.9306 10.7583 14.0917C10.5972 14.2528 10.4 14.3333 10.1667 14.3333ZM12.8333 5.66667C12.6 5.66667 12.4028 5.58611 12.2417 5.425C12.0806 5.26389 12 5.06667 12 4.83333C12 4.6 12.0806 4.40278 12.2417 4.24167C12.4028 4.08056 12.6 4 12.8333 4C13.0667 4 13.2639 4.08056 13.425 4.24167C13.5861 4.40278 13.6667 4.6 13.6667 4.83333C13.6667 5.06667 13.5861 5.26389 13.425 5.425C13.2639 5.58611 13.0667 5.66667 12.8333 5.66667ZM12.8333 12C12.6 12 12.4028 11.9194 12.2417 11.7583C12.0806 11.5972 12 11.4 12 11.1667C12 10.9333 12.0806 10.7361 12.2417 10.575C12.4028 10.4139 12.6 10.3333 12.8333 10.3333C13.0667 10.3333 13.2639 10.4139 13.425 10.575C13.5861 10.7361 13.6667 10.9333 13.6667 11.1667C13.6667 11.4 13.5861 11.5972 13.425 11.7583C13.2639 11.9194 13.0667 12 12.8333 12ZM13.8333 8.83333C13.6 8.83333 13.4028 8.75278 13.2417 8.59167C13.0806 8.43056 13 8.23333 13 8C13 7.76667 13.0806 7.56944 13.2417 7.40833C13.4028 7.24722 13.6 7.16667 13.8333 7.16667C14.0667 7.16667 14.2639 7.24722 14.425 7.40833C14.5861 7.56944 14.6667 7.76667 14.6667 8C14.6667 8.23333 14.5861 8.43056 14.425 8.59167C14.2639 8.75278 14.0667 8.83333 13.8333 8.83333ZM8 14.6667C7.07778 14.6667 6.21111 14.4917 5.4 14.1417C4.58889 13.7917 3.88333 13.3167 3.28333 12.7167C2.68333 12.1167 2.175 11.4111 1.85833 10.6C1.54167 9.78889 1.33333 8.92222 1.33333 8C1.33333 7.07778 1.54167 6.21111 1.85833 5.4C2.175 4.58889 2.68333 3.88333 3.28333 3.28333C3.88333 2.68333 4.58889 2.175 5.4 1.85833C6.21111 1.54167 7.07778 1.33333 8 1.33333V2.66667C6.51111 2.66667 5.25 3.18333 4.21667 4.21667C3.18333 5.25 2.66667 6.51111 2.66667 8C2.66667 9.48889 3.18333 10.75 4.21667 11.7833C5.25 12.8167 6.51111 13.3333 8 13.3333V14.6667ZM8 9.33333C7.63333 9.33333 7.31944 9.20278 7.05833 8.94167C6.79722 8.68056 6.66667 8.36667 6.66667 8C6.66667 7.94444 6.66944 7.88611 6.675 7.825C6.68056 7.76389 6.69444 7.70556 6.71667 7.65L5.33333 6.26667L6.26667 5.33333L7.65 6.71667C7.69444 6.70556 7.81111 6.68889 8 6.66667C8.36667 6.66667 8.68056 6.79722 8.94167 7.05833C9.20278 7.31944 9.33333 7.63333 9.33333 8C9.33333 8.36667 9.20278 8.68056 8.94167 8.94167C8.68056 9.20278 8.36667 9.33333 8 9.33333Z" fill="#1C1B1F"/>
</g>
</svg>
