<svg width="16" height="16" viewBox="0 0 24 24" fill="none" xmlns="http://www.w3.org/2000/svg">
<path d="M11.15 22.0001C10.9 22.0001 10.65 21.9501 10.4 21.8501C10.15 21.7501 9.925 21.6001 9.725 21.4001L2.575 14.2501C2.375 14.0501 2.22917 13.8292 2.1375 13.5876C2.04583 13.3459 2 13.1001 2 12.8501C2 12.6001 2.04583 12.3501 2.1375 12.1001C2.22917 11.8501 2.375 11.6251 2.575 11.4251L11.375 2.60006C11.5583 2.41673 11.775 2.27089 12.025 2.16256C12.275 2.05423 12.5333 2.00006 12.8 2.00006H19.975C20.525 2.00006 20.9958 2.19589 21.3875 2.58756C21.7792 2.97923 21.975 3.45006 21.975 4.00006V11.1751C21.975 11.4417 21.925 11.6959 21.825 11.9376C21.725 12.1792 21.5833 12.3917 21.4 12.5751L12.575 21.4001C12.375 21.6001 12.15 21.7501 11.9 21.8501C11.65 21.9501 11.4 22.0001 11.15 22.0001ZM11.15 20.0001L19.975 11.1501V4.00006H12.825L4 12.8501L11.15 20.0001ZM17.475 8.00006C17.8917 8.00006 18.2458 7.85423 18.5375 7.56256C18.8292 7.27089 18.975 6.91673 18.975 6.50006C18.975 6.08339 18.8292 5.72923 18.5375 5.43756C18.2458 5.14589 17.8917 5.00006 17.475 5.00006C17.0583 5.00006 16.7042 5.14589 16.4125 5.43756C16.1208 5.72923 15.975 6.08339 15.975 6.50006C15.975 6.91673 16.1208 7.27089 16.4125 7.56256C16.7042 7.85423 17.0583 8.00006 17.475 8.00006Z" fill="currentColor"/>
</svg>
